<svg xmlns="http://www.w3.org/2000/svg" xmlns:xlink="http://www.w3.org/1999/xlink" zoomAndPan="magnify" preserveAspectRatio="xMidYMid meet" version="1.0" viewBox="56.5 171.02 489.18 190.22"><defs><g/><clipPath id="7dc531810b"><rect x="0" width="477" y="0" height="154"/></clipPath><clipPath id="32c2a19124"><path d="M 322.964844 277.730469 L 346.023438 277.730469 L 346.023438 300.789062 L 322.964844 300.789062 Z M 322.964844 277.730469 " clip-rule="nonzero"/></clipPath><clipPath id="350d2f7de9"><path d="M 334.492188 277.730469 L 338.160156 285.589844 L 346.023438 289.257812 L 338.160156 292.929688 L 334.492188 300.789062 L 330.824219 292.929688 L 322.964844 289.257812 L 330.824219 285.589844 Z M 334.492188 277.730469 " clip-rule="nonzero"/></clipPath><clipPath id="09c295a9f8"><path d="M 0.964844 0.730469 L 24.023438 0.730469 L 24.023438 23.789062 L 0.964844 23.789062 Z M 0.964844 0.730469 " clip-rule="nonzero"/></clipPath><clipPath id="03e6035790"><path d="M 12.492188 0.730469 L 16.160156 8.589844 L 24.023438 12.257812 L 16.160156 15.929688 L 12.492188 23.789062 L 8.824219 15.929688 L 0.964844 12.257812 L 8.824219 8.589844 Z M 12.492188 0.730469 " clip-rule="nonzero"/></clipPath><clipPath id="dbdb323616"><rect x="0" width="25" y="0" height="24"/></clipPath><clipPath id="d06cd05b5f"><path d="M 322.964844 171.015625 L 376.394531 171.015625 L 376.394531 224.445312 L 322.964844 224.445312 Z M 322.964844 171.015625 " clip-rule="nonzero"/></clipPath><clipPath id="0f4bca5b50"><path d="M 349.679688 171.015625 L 358.179688 189.226562 L 376.394531 197.730469 L 358.179688 206.230469 L 349.679688 224.445312 L 341.179688 206.230469 L 322.964844 197.730469 L 341.179688 189.226562 Z M 349.679688 171.015625 " clip-rule="nonzero"/></clipPath><clipPath id="f9892c44ca"><path d="M 0.964844 0.015625 L 54.394531 0.015625 L 54.394531 53.445312 L 0.964844 53.445312 Z M 0.964844 0.015625 " clip-rule="nonzero"/></clipPath><clipPath id="d8b027b128"><path d="M 27.679688 0.015625 L 36.179688 18.226562 L 54.394531 26.730469 L 36.179688 35.230469 L 27.679688 53.445312 L 19.179688 35.230469 L 0.964844 26.730469 L 19.179688 18.226562 Z M 27.679688 0.015625 " clip-rule="nonzero"/></clipPath><clipPath id="3794be6f44"><rect x="0" width="55" y="0" height="54"/></clipPath><clipPath id="cecc30055a"><path d="M 338.152344 186.199219 L 361.207031 186.199219 L 361.207031 209.257812 L 338.152344 209.257812 Z M 338.152344 186.199219 " clip-rule="nonzero"/></clipPath><clipPath id="a669831b15"><path d="M 349.679688 186.199219 L 353.347656 194.058594 L 361.207031 197.730469 L 353.347656 201.398438 L 349.679688 209.257812 L 346.011719 201.398438 L 338.152344 197.730469 L 346.011719 194.058594 Z M 349.679688 186.199219 " clip-rule="nonzero"/></clipPath><clipPath id="a14f7cf615"><path d="M 0.152344 0.199219 L 23.207031 0.199219 L 23.207031 23.257812 L 0.152344 23.257812 Z M 0.152344 0.199219 " clip-rule="nonzero"/></clipPath><clipPath id="6bd228fad2"><path d="M 11.679688 0.199219 L 15.347656 8.058594 L 23.207031 11.730469 L 15.347656 15.398438 L 11.679688 23.257812 L 8.011719 15.398438 L 0.152344 11.730469 L 8.011719 8.058594 Z M 11.679688 0.199219 " clip-rule="nonzero"/></clipPath><clipPath id="54f31d33c4"><rect x="0" width="24" y="0" height="24"/></clipPath><clipPath id="95987f5a03"><path d="M 241.625 277.730469 L 264.679688 277.730469 L 264.679688 300.789062 L 241.625 300.789062 Z M 241.625 277.730469 " clip-rule="nonzero"/></clipPath><clipPath id="38b8575387"><path d="M 253.152344 277.730469 L 256.820312 285.589844 L 264.679688 289.257812 L 256.820312 292.929688 L 253.152344 300.789062 L 249.484375 292.929688 L 241.625 289.257812 L 249.484375 285.589844 Z M 253.152344 277.730469 " clip-rule="nonzero"/></clipPath><clipPath id="edba800194"><path d="M 0.625 0.730469 L 23.679688 0.730469 L 23.679688 23.789062 L 0.625 23.789062 Z M 0.625 0.730469 " clip-rule="nonzero"/></clipPath><clipPath id="a56b0c190e"><path d="M 12.152344 0.730469 L 15.820312 8.589844 L 23.679688 12.257812 L 15.820312 15.929688 L 12.152344 23.789062 L 8.484375 15.929688 L 0.625 12.257812 L 8.484375 8.589844 Z M 12.152344 0.730469 " clip-rule="nonzero"/></clipPath><clipPath id="2468b2fe2a"><rect x="0" width="24" y="0" height="24"/></clipPath><clipPath id="dbe4335d77"><path d="M 404.523438 276.941406 L 427.578125 276.941406 L 427.578125 300 L 404.523438 300 Z M 404.523438 276.941406 " clip-rule="nonzero"/></clipPath><clipPath id="95750b768a"><path d="M 416.050781 276.941406 L 419.71875 284.804688 L 427.578125 288.472656 L 419.71875 292.140625 L 416.050781 300 L 412.382812 292.140625 L 404.523438 288.472656 L 412.382812 284.804688 Z M 416.050781 276.941406 " clip-rule="nonzero"/></clipPath><clipPath id="e8716a66b4"><path d="M 0.523438 0.941406 L 23.578125 0.941406 L 23.578125 24 L 0.523438 24 Z M 0.523438 0.941406 " clip-rule="nonzero"/></clipPath><clipPath id="e7eda905eb"><path d="M 12.050781 0.941406 L 15.71875 8.804688 L 23.578125 12.472656 L 15.71875 16.140625 L 12.050781 24 L 8.382812 16.140625 L 0.523438 12.472656 L 8.382812 8.804688 Z M 12.050781 0.941406 " clip-rule="nonzero"/></clipPath><clipPath id="aad26abbed"><rect x="0" width="24" y="0" height="24"/></clipPath><clipPath id="0d6998651f"><path d="M 154.988281 265.921875 L 189.585938 265.921875 L 189.585938 300.515625 L 154.988281 300.515625 Z M 154.988281 265.921875 " clip-rule="nonzero"/></clipPath><clipPath id="d22610e321"><path d="M 172.289062 265.921875 L 177.792969 277.714844 L 189.585938 283.21875 L 177.792969 288.722656 L 172.289062 300.515625 L 166.785156 288.722656 L 154.988281 283.21875 L 166.785156 277.714844 Z M 172.289062 265.921875 " clip-rule="nonzero"/></clipPath><clipPath id="47533bd7d6"><path d="M 0.988281 0.921875 L 35.585938 0.921875 L 35.585938 35.515625 L 0.988281 35.515625 Z M 0.988281 0.921875 " clip-rule="nonzero"/></clipPath><clipPath id="6a9795ae5d"><path d="M 18.289062 0.921875 L 23.792969 12.714844 L 35.585938 18.21875 L 23.792969 23.722656 L 18.289062 35.515625 L 12.785156 23.722656 L 0.988281 18.21875 L 12.785156 12.714844 Z M 18.289062 0.921875 " clip-rule="nonzero"/></clipPath><clipPath id="07c1624733"><rect x="0" width="36" y="0" height="36"/></clipPath><clipPath id="555d85e388"><path d="M 86.546875 283.21875 L 114.855469 283.21875 L 114.855469 311.527344 L 86.546875 311.527344 Z M 86.546875 283.21875 " clip-rule="nonzero"/></clipPath><clipPath id="df0465f3a1"><path d="M 100.703125 283.21875 L 105.207031 292.871094 L 114.855469 297.375 L 105.207031 301.878906 L 100.703125 311.527344 L 96.199219 301.878906 L 86.546875 297.375 L 96.199219 292.871094 Z M 100.703125 283.21875 " clip-rule="nonzero"/></clipPath><clipPath id="177530db86"><path d="M 0.546875 0.21875 L 28.855469 0.21875 L 28.855469 28.527344 L 0.546875 28.527344 Z M 0.546875 0.21875 " clip-rule="nonzero"/></clipPath><clipPath id="132a34aa0f"><path d="M 14.703125 0.21875 L 19.207031 9.871094 L 28.855469 14.375 L 19.207031 18.878906 L 14.703125 28.527344 L 10.199219 18.878906 L 0.546875 14.375 L 10.199219 9.871094 Z M 14.703125 0.21875 " clip-rule="nonzero"/></clipPath><clipPath id="330f738bcb"><rect x="0" width="29" y="0" height="29"/></clipPath></defs><g transform="matrix(1, 0, 0, 1, 64, 200)"><g clip-path="url(#7dc531810b)"><g fill="#ffffff" fill-opacity="1"><g transform="translate(0.624835, 126.142497)"><g><path d="M 63.96875 -64.5 L 36.078125 -64.5 L 36.078125 -66.25 C 36.078125 -67.59375 35.40625 -68.265625 34.0625 -68.265625 C 32.632812 -68.265625 31.921875 -67.59375 31.921875 -66.25 C 31.921875 -65.71875 32.078125 -65.179688 32.390625 -64.640625 C 32.703125 -64.109375 33.484375 -63.414062 34.734375 -62.5625 C 35.984375 -61.707031 37.992188 -60.523438 40.765625 -59.015625 C 43.085938 -57.671875 45.585938 -56.148438 48.265625 -54.453125 C 50.953125 -52.753906 53.476562 -50.695312 55.84375 -48.28125 C 58.21875 -45.863281 60.164062 -42.957031 61.6875 -39.5625 C 63.207031 -36.164062 63.96875 -32.097656 63.96875 -27.359375 C 63.96875 -21.898438 62.625 -16.890625 59.9375 -12.328125 C 57.257812 -7.773438 53.640625 -4.15625 49.078125 -1.46875 C 44.523438 1.207031 39.519531 2.546875 34.0625 2.546875 C 28.519531 2.546875 23.46875 1.207031 18.90625 -1.46875 C 14.34375 -4.15625 10.71875 -7.773438 8.03125 -12.328125 C 5.351562 -16.890625 4.015625 -21.898438 4.015625 -27.359375 L 4.015625 -29.109375 L 31.921875 -29.109375 L 31.921875 -27.359375 C 31.921875 -26.015625 32.632812 -25.34375 34.0625 -25.34375 C 35.40625 -25.34375 36.078125 -26.015625 36.078125 -27.359375 C 36.078125 -27.890625 35.921875 -28.398438 35.609375 -28.890625 C 35.296875 -29.390625 34.535156 -30.0625 33.328125 -30.90625 C 32.117188 -31.757812 30.082031 -32.988281 27.21875 -34.59375 C 24.894531 -35.851562 22.390625 -37.332031 19.703125 -39.03125 C 17.023438 -40.726562 14.5 -42.804688 12.125 -45.265625 C 9.757812 -47.722656 7.816406 -50.648438 6.296875 -54.046875 C 4.773438 -57.441406 4.015625 -61.507812 4.015625 -66.25 C 4.015625 -71.707031 5.351562 -76.710938 8.03125 -81.265625 C 10.71875 -85.828125 14.34375 -89.445312 18.90625 -92.125 C 23.46875 -94.8125 28.519531 -96.15625 34.0625 -96.15625 C 39.519531 -96.15625 44.523438 -94.8125 49.078125 -92.125 C 53.640625 -89.445312 57.257812 -85.828125 59.9375 -81.265625 C 62.625 -76.710938 63.96875 -71.707031 63.96875 -66.25 Z M 63.96875 -64.5 "/></g></g></g><g fill="#ffffff" fill-opacity="1"><g transform="translate(74.115284, 126.142497)"><g><path d="M 52.03125 -31.65625 C 55.519531 -31.65625 58.601562 -32.703125 61.28125 -34.796875 C 63.96875 -36.898438 65.757812 -39.5625 66.65625 -42.78125 L 101.25 -42.78125 C 100.800781 -36.4375 99.191406 -30.515625 96.421875 -25.015625 C 93.648438 -19.515625 90.050781 -14.707031 85.625 -10.59375 C 81.195312 -6.476562 76.125 -3.257812 70.40625 -0.9375 C 64.6875 1.382812 58.5625 2.546875 52.03125 2.546875 C 45.238281 2.546875 38.867188 1.273438 32.921875 -1.265625 C 26.972656 -3.816406 21.71875 -7.347656 17.15625 -11.859375 C 12.601562 -16.378906 9.050781 -21.632812 6.5 -27.625 C 3.957031 -33.613281 2.6875 -40.003906 2.6875 -46.796875 C 2.6875 -53.597656 3.957031 -59.992188 6.5 -65.984375 C 9.050781 -71.972656 12.601562 -77.222656 17.15625 -81.734375 C 21.71875 -86.253906 26.972656 -89.785156 32.921875 -92.328125 C 38.867188 -94.878906 45.238281 -96.15625 52.03125 -96.15625 C 58.5625 -96.15625 64.6875 -94.992188 70.40625 -92.671875 C 76.125 -90.347656 81.195312 -87.128906 85.625 -83.015625 C 90.050781 -78.898438 93.648438 -74.09375 96.421875 -68.59375 C 99.191406 -63.09375 100.800781 -57.171875 101.25 -50.828125 L 66.65625 -50.828125 C 65.757812 -53.953125 63.96875 -56.585938 61.28125 -58.734375 C 58.601562 -60.878906 55.519531 -61.953125 52.03125 -61.953125 C 49.257812 -61.953125 46.734375 -61.257812 44.453125 -59.875 C 42.171875 -58.488281 40.359375 -56.65625 39.015625 -54.375 C 37.679688 -52.101562 37.015625 -49.578125 37.015625 -46.796875 C 37.015625 -44.023438 37.679688 -41.5 39.015625 -39.21875 C 40.359375 -36.945312 42.171875 -35.117188 44.453125 -33.734375 C 46.734375 -32.347656 49.257812 -31.65625 52.03125 -31.65625 Z M 52.03125 -31.65625 "/></g></g></g><g fill="#ffffff" fill-opacity="1"><g transform="translate(183.546253, 126.142497)"><g><path d="M 37.8125 0 L 6.703125 0 L 6.703125 -93.609375 L 37.8125 -93.609375 Z M 48.40625 -43.1875 L 71.75 0 L 41.4375 0 L 41.4375 -93.609375 L 43.046875 -93.609375 C 43.046875 -93.609375 43.066406 -93.609375 43.109375 -93.609375 C 43.160156 -93.609375 43.1875 -93.609375 43.1875 -93.609375 C 47.832031 -93.609375 52.097656 -92.445312 55.984375 -90.125 C 59.878906 -87.800781 62.960938 -84.710938 65.234375 -80.859375 C 67.515625 -77.015625 68.65625 -72.769531 68.65625 -68.125 C 68.65625 -62.132812 66.9375 -56.90625 63.5 -52.4375 C 60.0625 -47.96875 55.390625 -44.972656 49.484375 -43.453125 C 49.304688 -43.359375 49.128906 -43.289062 48.953125 -43.25 C 48.773438 -43.207031 48.59375 -43.1875 48.40625 -43.1875 Z M 48.40625 -43.1875 "/></g></g></g><g fill="#ffffff" fill-opacity="1"><g transform="translate(263.473802, 126.142497)"><g><path d="M 37.8125 -93.609375 L 37.8125 -68.53125 L 21.328125 -62.5 L 37.8125 -62.5 L 37.8125 0 L 6.703125 0 L 6.703125 -93.609375 Z M 37.8125 -93.609375 "/></g></g></g><g fill="#ffffff" fill-opacity="1"><g transform="translate(313.361513, 126.142497)"><g><path d="M 57.796875 -50.15625 C 61.460938 -49.257812 64.75 -47.601562 67.65625 -45.1875 C 70.5625 -42.78125 72.84375 -39.898438 74.5 -36.546875 C 76.15625 -33.191406 76.984375 -29.503906 76.984375 -25.484375 C 76.984375 -20.828125 75.84375 -16.554688 73.5625 -12.671875 C 71.28125 -8.785156 68.191406 -5.703125 64.296875 -3.421875 C 60.410156 -1.140625 56.144531 0 51.5 0 C 51.5 0 51.472656 0 51.421875 0 C 51.378906 0 51.359375 0 51.359375 0 L 41.96875 0 L 41.96875 -93.609375 L 48.6875 -93.609375 C 52.789062 -93.609375 56.5625 -92.578125 60 -90.515625 C 63.445312 -88.460938 66.195312 -85.710938 68.25 -82.265625 C 70.3125 -78.828125 71.34375 -75.050781 71.34375 -70.9375 C 71.34375 -66.289062 70.09375 -62.113281 67.59375 -58.40625 C 65.09375 -54.695312 61.828125 -51.945312 57.796875 -50.15625 Z M 37.8125 0 L 6.703125 0 L 6.703125 -93.609375 L 37.8125 -93.609375 Z M 37.8125 0 "/></g></g></g><g fill="#ffffff" fill-opacity="1"><g transform="translate(399.860266, 126.142497)"><g><path d="M 64.78125 -63.171875 L 37.8125 -63.171875 L 37.8125 -59.671875 L 51.359375 -59.671875 L 51.359375 -33.921875 L 37.8125 -33.921875 L 37.8125 -30.4375 L 64.78125 -30.4375 L 64.78125 0 L 6.703125 0 L 6.703125 -93.609375 L 64.78125 -93.609375 Z M 64.78125 -63.171875 "/></g></g></g></g></g><path stroke-linecap="butt" transform="matrix(0.75, 0, 0, 0.75, 59.999998, 355.107485)" fill="none" stroke-linejoin="miter" d="M 0.00000301333 3.50252 L 642.90628 3.50252 " stroke="#ffffff" stroke-width="7" stroke-opacity="1" stroke-miterlimit="4"/><g clip-path="url(#32c2a19124)"><g clip-path="url(#350d2f7de9)"><g transform="matrix(1, 0, 0, 1, 322, 277)"><g clip-path="url(#dbdb323616)"><g clip-path="url(#09c295a9f8)"><g clip-path="url(#03e6035790)"><path fill="#000000" d="M 0.964844 0.730469 L 24.023438 0.730469 L 24.023438 23.789062 L 0.964844 23.789062 Z M 0.964844 0.730469 " fill-opacity="1" fill-rule="nonzero"/></g></g></g></g></g></g><g clip-path="url(#d06cd05b5f)"><g clip-path="url(#0f4bca5b50)"><g transform="matrix(1, 0, 0, 1, 322, 171)"><g clip-path="url(#3794be6f44)"><g clip-path="url(#f9892c44ca)"><g clip-path="url(#d8b027b128)"><path fill="#ffffff" d="M 0.964844 0.015625 L 54.394531 0.015625 L 54.394531 53.445312 L 0.964844 53.445312 Z M 0.964844 0.015625 " fill-opacity="1" fill-rule="nonzero"/></g></g></g></g></g></g><g clip-path="url(#cecc30055a)"><g clip-path="url(#a669831b15)"><g transform="matrix(1, 0, 0, 1, 338, 186)"><g clip-path="url(#54f31d33c4)"><g clip-path="url(#a14f7cf615)"><g clip-path="url(#6bd228fad2)"><path fill="#000000" d="M 0.152344 0.199219 L 23.207031 0.199219 L 23.207031 23.257812 L 0.152344 23.257812 Z M 0.152344 0.199219 " fill-opacity="1" fill-rule="nonzero"/></g></g></g></g></g></g><g clip-path="url(#95987f5a03)"><g clip-path="url(#38b8575387)"><g transform="matrix(1, 0, 0, 1, 241, 277)"><g clip-path="url(#2468b2fe2a)"><g clip-path="url(#edba800194)"><g clip-path="url(#a56b0c190e)"><path fill="#000000" d="M 0.625 0.730469 L 23.679688 0.730469 L 23.679688 23.789062 L 0.625 23.789062 Z M 0.625 0.730469 " fill-opacity="1" fill-rule="nonzero"/></g></g></g></g></g></g><g clip-path="url(#dbe4335d77)"><g clip-path="url(#95750b768a)"><g transform="matrix(1, 0, 0, 1, 404, 276)"><g clip-path="url(#aad26abbed)"><g clip-path="url(#e8716a66b4)"><g clip-path="url(#e7eda905eb)"><path fill="#000000" d="M 0.523438 0.941406 L 23.578125 0.941406 L 23.578125 24 L 0.523438 24 Z M 0.523438 0.941406 " fill-opacity="1" fill-rule="nonzero"/></g></g></g></g></g></g><g clip-path="url(#0d6998651f)"><g clip-path="url(#d22610e321)"><g transform="matrix(1, 0, 0, 1, 154, 265)"><g clip-path="url(#07c1624733)"><g clip-path="url(#47533bd7d6)"><g clip-path="url(#6a9795ae5d)"><path fill="#000000" d="M 0.988281 0.921875 L 35.585938 0.921875 L 35.585938 35.515625 L 0.988281 35.515625 Z M 0.988281 0.921875 " fill-opacity="1" fill-rule="nonzero"/></g></g></g></g></g></g><g clip-path="url(#555d85e388)"><g clip-path="url(#df0465f3a1)"><g transform="matrix(1, 0, 0, 1, 86, 283)"><g clip-path="url(#330f738bcb)"><g clip-path="url(#177530db86)"><g clip-path="url(#132a34aa0f)"><path fill="#000000" d="M 0.546875 0.21875 L 28.855469 0.21875 L 28.855469 28.527344 L 0.546875 28.527344 Z M 0.546875 0.21875 " fill-opacity="1" fill-rule="nonzero"/></g></g></g></g></g></g></svg>